<mxfile host="app.diagrams.net" agent="Mozilla/5.0 (Windows NT 10.0; Win64; x64) AppleWebKit/537.36 (KHTML, like Gecko) Chrome/138.0.0.0 Safari/537.36" version="27.0.9">
  <diagram name="第 1 页" id="l5_oaso-ou6Ena2Mq8iG">
    <mxGraphModel dx="1426" dy="823" grid="1" gridSize="10" guides="1" tooltips="1" connect="1" arrows="1" fold="1" page="1" pageScale="1" pageWidth="827" pageHeight="1169" math="0" shadow="0">
      <root>
        <mxCell id="0" />
        <mxCell id="1" parent="0" />
        <mxCell id="fgcRGyQzmuoM3oqXKBty-26" value="TRTS-4S" style="shape=datastore;whiteSpace=wrap;html=1;" parent="1" vertex="1">
          <mxGeometry x="40" y="360" width="100" height="90" as="geometry" />
        </mxCell>
        <mxCell id="fgcRGyQzmuoM3oqXKBty-31" value="" style="edgeStyle=orthogonalEdgeStyle;rounded=0;orthogonalLoop=1;jettySize=auto;html=1;exitX=1;exitY=0.3;exitDx=0;exitDy=0;entryX=0;entryY=0.5;entryDx=0;entryDy=0;" parent="1" source="fgcRGyQzmuoM3oqXKBty-26" target="fgcRGyQzmuoM3oqXKBty-33" edge="1">
          <mxGeometry relative="1" as="geometry">
            <mxPoint x="170" y="640" as="sourcePoint" />
            <mxPoint x="200" y="340" as="targetPoint" />
            <Array as="points">
              <mxPoint x="260" y="387" />
              <mxPoint x="260" y="340" />
            </Array>
          </mxGeometry>
        </mxCell>
        <mxCell id="fgcRGyQzmuoM3oqXKBty-32" value="" style="edgeStyle=orthogonalEdgeStyle;rounded=0;orthogonalLoop=1;jettySize=auto;html=1;entryX=0;entryY=0.5;entryDx=0;entryDy=0;exitX=1;exitY=0.7;exitDx=0;exitDy=0;" parent="1" source="fgcRGyQzmuoM3oqXKBty-26" target="fgcRGyQzmuoM3oqXKBty-39" edge="1">
          <mxGeometry relative="1" as="geometry">
            <mxPoint x="144" y="420" as="sourcePoint" />
            <mxPoint x="200" y="470" as="targetPoint" />
            <Array as="points">
              <mxPoint x="210" y="423" />
              <mxPoint x="210" y="470" />
            </Array>
          </mxGeometry>
        </mxCell>
        <mxCell id="fgcRGyQzmuoM3oqXKBty-36" value="" style="edgeStyle=orthogonalEdgeStyle;rounded=0;orthogonalLoop=1;jettySize=auto;html=1;" parent="1" source="fgcRGyQzmuoM3oqXKBty-33" target="fgcRGyQzmuoM3oqXKBty-35" edge="1">
          <mxGeometry relative="1" as="geometry" />
        </mxCell>
        <mxCell id="fgcRGyQzmuoM3oqXKBty-33" value="QGIS&lt;div&gt;編修路網&lt;/div&gt;" style="ellipse;whiteSpace=wrap;html=1;" parent="1" vertex="1">
          <mxGeometry x="280" y="300" width="80" height="80" as="geometry" />
        </mxCell>
        <mxCell id="fgcRGyQzmuoM3oqXKBty-38" value="" style="edgeStyle=orthogonalEdgeStyle;rounded=0;orthogonalLoop=1;jettySize=auto;html=1;" parent="1" source="fgcRGyQzmuoM3oqXKBty-35" target="fgcRGyQzmuoM3oqXKBty-37" edge="1">
          <mxGeometry relative="1" as="geometry" />
        </mxCell>
        <mxCell id="fgcRGyQzmuoM3oqXKBty-46" value="" style="edgeStyle=orthogonalEdgeStyle;rounded=0;orthogonalLoop=1;jettySize=auto;html=1;entryX=0.4;entryY=1.04;entryDx=0;entryDy=0;entryPerimeter=0;" parent="1" target="fgcRGyQzmuoM3oqXKBty-44" edge="1">
          <mxGeometry relative="1" as="geometry">
            <mxPoint x="491" y="300" as="sourcePoint" />
            <mxPoint x="491" y="230" as="targetPoint" />
          </mxGeometry>
        </mxCell>
        <mxCell id="fgcRGyQzmuoM3oqXKBty-35" value="Python&lt;div&gt;取得路網參數&lt;/div&gt;&lt;div&gt;轉換統一格式&lt;/div&gt;" style="ellipse;whiteSpace=wrap;html=1;" parent="1" vertex="1">
          <mxGeometry x="460" y="289" width="100" height="101" as="geometry" />
        </mxCell>
        <mxCell id="fgcRGyQzmuoM3oqXKBty-37" value="net.tntp" style="shape=document;whiteSpace=wrap;html=1;boundedLbl=1;fontSize=14;" parent="1" vertex="1">
          <mxGeometry x="650" y="300" width="120" height="80" as="geometry" />
        </mxCell>
        <mxCell id="fgcRGyQzmuoM3oqXKBty-42" value="" style="edgeStyle=orthogonalEdgeStyle;rounded=0;orthogonalLoop=1;jettySize=auto;html=1;" parent="1" source="fgcRGyQzmuoM3oqXKBty-39" target="fgcRGyQzmuoM3oqXKBty-41" edge="1">
          <mxGeometry relative="1" as="geometry" />
        </mxCell>
        <mxCell id="fgcRGyQzmuoM3oqXKBty-39" value="Python&lt;div&gt;轉換統一格式&lt;/div&gt;&lt;div&gt;依情境編修&lt;/div&gt;" style="ellipse;whiteSpace=wrap;html=1;" parent="1" vertex="1">
          <mxGeometry x="380" y="420" width="100" height="100" as="geometry" />
        </mxCell>
        <mxCell id="fgcRGyQzmuoM3oqXKBty-41" value="trips.tntp" style="shape=document;whiteSpace=wrap;html=1;boundedLbl=1;fontSize=14;" parent="1" vertex="1">
          <mxGeometry x="650" y="430" width="120" height="80" as="geometry" />
        </mxCell>
        <mxCell id="fgcRGyQzmuoM3oqXKBty-43" value=".csv 檔案" style="text;html=1;align=center;verticalAlign=middle;resizable=0;points=[];autosize=1;strokeColor=none;fillColor=none;" parent="1" vertex="1">
          <mxGeometry x="375" y="317" width="70" height="30" as="geometry" />
        </mxCell>
        <mxCell id="fgcRGyQzmuoM3oqXKBty-45" value="" style="edgeStyle=orthogonalEdgeStyle;rounded=0;orthogonalLoop=1;jettySize=auto;html=1;exitX=0.621;exitY=1;exitDx=0;exitDy=0;exitPerimeter=0;entryX=0.64;entryY=0;entryDx=0;entryDy=0;entryPerimeter=0;" parent="1" source="fgcRGyQzmuoM3oqXKBty-44" edge="1" target="fgcRGyQzmuoM3oqXKBty-35">
          <mxGeometry relative="1" as="geometry">
            <mxPoint x="522" y="230" as="sourcePoint" />
            <mxPoint x="522" y="280" as="targetPoint" />
          </mxGeometry>
        </mxCell>
        <mxCell id="fgcRGyQzmuoM3oqXKBty-44" value="公路路網屬性表" style="shape=dataStorage;whiteSpace=wrap;html=1;fixedSize=1;" parent="1" vertex="1">
          <mxGeometry x="435" y="200" width="140" height="50" as="geometry" />
        </mxCell>
        <mxCell id="fgcRGyQzmuoM3oqXKBty-47" value="路網 (.shp 檔案)" style="text;html=1;align=center;verticalAlign=middle;resizable=0;points=[];autosize=1;strokeColor=none;fillColor=none;" parent="1" vertex="1">
          <mxGeometry x="150" y="360" width="110" height="30" as="geometry" />
        </mxCell>
        <mxCell id="fgcRGyQzmuoM3oqXKBty-48" value="旅次起訖矩陣 (.csv 檔案)" style="text;html=1;align=center;verticalAlign=middle;resizable=0;points=[];autosize=1;strokeColor=none;fillColor=none;" parent="1" vertex="1">
          <mxGeometry x="204" y="446" width="160" height="30" as="geometry" />
        </mxCell>
        <mxCell id="fgcRGyQzmuoM3oqXKBty-51" value=".tntp 檔案" style="text;html=1;align=center;verticalAlign=middle;resizable=0;points=[];autosize=1;strokeColor=none;fillColor=none;" parent="1" vertex="1">
          <mxGeometry x="513" y="448" width="70" height="30" as="geometry" />
        </mxCell>
        <mxCell id="fgcRGyQzmuoM3oqXKBty-52" value=".tntp 檔案" style="text;html=1;align=center;verticalAlign=middle;resizable=0;points=[];autosize=1;strokeColor=none;fillColor=none;" parent="1" vertex="1">
          <mxGeometry x="562" y="317" width="70" height="30" as="geometry" />
        </mxCell>
      </root>
    </mxGraphModel>
  </diagram>
</mxfile>
